<svg width="16" height="17" viewBox="0 0 16 17" fill="none" xmlns="http://www.w3.org/2000/svg">
<g clip-path="url(#clip0_865_256)">
<path fill-rule="evenodd" clip-rule="evenodd" d="M10.4712 8.02866C10.5962 8.15368 10.6664 8.32322 10.6664 8.5C10.6664 8.67677 10.5962 8.84631 10.4712 8.97133L6.6999 12.7427C6.63841 12.8063 6.56484 12.8571 6.48351 12.8921C6.40217 12.927 6.31469 12.9454 6.22617 12.9462C6.13765 12.9469 6.04986 12.9301 5.96793 12.8965C5.886 12.863 5.81157 12.8135 5.74897 12.7509C5.68638 12.6883 5.63688 12.6139 5.60336 12.532C5.56983 12.45 5.55297 12.3622 5.55374 12.2737C5.55451 12.1852 5.5729 12.0977 5.60784 12.0164C5.64277 11.9351 5.69356 11.8615 5.75724 11.8L9.05724 8.5L5.75724 5.2C5.6358 5.07426 5.5686 4.90586 5.57012 4.73106C5.57164 4.55627 5.64175 4.38906 5.76536 4.26545C5.88896 4.14185 6.05617 4.07173 6.23097 4.07022C6.40577 4.0687 6.57417 4.13589 6.6999 4.25733L10.4712 8.02866Z" fill="black"/>
</g>
<defs>
<clipPath id="clip0_865_256">
<rect width="16" height="16" fill="white" transform="translate(0 0.5)"/>
</clipPath>
</defs>
</svg>
