<svg width="16" height="16" viewBox="0 0 16 16" fill="none" xmlns="http://www.w3.org/2000/svg">
<path d="M11 3.33333V2M5 3.33333V2M2.16667 5.33333H13.8333M2 8C2 5.17133 2 4.424 2.87867 3.54533C3.75733 2.66667 5.172 2.66667 8 2.66667C10.8287 2.66667 12.2427 2.66667 13.1213 3.54533C14 4.424 14 5.172 14 8C14 10.8287 14 12.2427 13.1213 13.1213C12.2427 14 10.828 14 8 14C5.17133 14 3.75733 14 2.87867 13.1213C2 12.2427 2 10.828 2 8Z" stroke="black" stroke-linecap="round" stroke-linejoin="round"/>
</svg>
