<svg width="12" height="12" viewBox="0 0 12 12" fill="none" xmlns="http://www.w3.org/2000/svg">
<path d="M11.2502 9.375V6.375C11.2502 6.27554 11.2107 6.18016 11.1404 6.10984C11.07 6.03951 10.9747 6 10.8752 6C10.7758 6 10.6804 6.03951 10.61 6.10984C10.5397 6.18016 10.5002 6.27554 10.5002 6.375V8.46984L6.64052 4.60969C6.60569 4.57482 6.56434 4.54716 6.51881 4.52829C6.47329 4.50942 6.42449 4.49971 6.37521 4.49971C6.32593 4.49971 6.27713 4.50942 6.23161 4.52829C6.18608 4.54716 6.14472 4.57482 6.1099 4.60969L4.50021 6.21984L1.39052 3.10969C1.32016 3.03932 1.22472 2.99979 1.12521 2.99979C1.0257 2.99979 0.930261 3.03932 0.859896 3.10969C0.789531 3.18005 0.75 3.27549 0.75 3.375C0.75 3.47451 0.789531 3.56995 0.859896 3.64031L4.2349 7.01531C4.26972 7.05018 4.31108 7.07784 4.35661 7.09671C4.40213 7.11558 4.45093 7.1253 4.50021 7.1253C4.54949 7.1253 4.59829 7.11558 4.64381 7.09671C4.68934 7.07784 4.73069 7.05018 4.76552 7.01531L6.37521 5.40516L9.97005 9H7.87521C7.77575 9 7.68037 9.03951 7.61004 9.10984C7.53972 9.18016 7.50021 9.27554 7.50021 9.375C7.50021 9.47446 7.53972 9.56984 7.61004 9.64016C7.68037 9.71049 7.77575 9.75 7.87521 9.75H10.8752C10.9747 9.75 11.07 9.71049 11.1404 9.64016C11.2107 9.56984 11.2502 9.47446 11.2502 9.375Z" fill="#FF5E5E"/>
</svg>
