<svg width="62" height="42" viewBox="0 0 62 42" fill="none" xmlns="http://www.w3.org/2000/svg">
<g clip-path="url(#clip0_842_182)">
<rect x="30.0752" y="15.4082" width="15.5558" height="7.03716" fill="black"/>
<path d="M61.6893 20.0326V34.255C61.6893 34.4318 61.626 34.6028 61.5109 34.737C61.3959 34.8712 61.2366 34.9599 61.0619 34.9869L15.8285 41.9915C15.6518 42.0192 15.4712 41.9816 15.3203 41.8855L2.15342 33.581C1.9586 33.4698 1.30526 33.0306 0.763024 31.8913C0.0333813 30.3572 -0.17403 28.2505 0.148198 25.6304C0.581539 22.0896 2.40676 20.5237 3.86086 19.8333C4.16091 19.6917 4.47178 19.5743 4.7905 19.4822L2.5475 18.0829C2.44072 18.0163 2.35265 17.9237 2.29161 17.8136C2.23056 17.7036 2.19856 17.5798 2.19861 17.454V8.03383L0.370424 6.89455C0.265152 6.82877 0.178099 6.73758 0.117265 6.62938C0.0564303 6.52117 0.023765 6.39941 0.02227 6.27528L4.73743e-05 4.10709C-0.00197219 3.92845 0.060639 3.7551 0.176344 3.61897C0.29205 3.48285 0.453053 3.39313 0.629688 3.36634L7.31351 2.35595C7.48941 2.32937 7.66899 2.36697 7.81945 2.46188L7.9676 2.5567C8.02159 2.4543 8.09884 2.36598 8.19313 2.29883C8.28743 2.23168 8.39615 2.18757 8.51057 2.17002L11.1173 1.77076C11.2956 1.74316 11.4779 1.78162 11.6299 1.87891L12.6255 2.51892V2.18262C12.6256 2.00561 12.689 1.83448 12.8044 1.70023C12.9198 1.56598 13.0794 1.47748 13.2544 1.45075L15.8611 1.05074C16.0351 1.02415 16.2129 1.06039 16.3626 1.15297L16.49 1.23149C16.5448 1.13348 16.6211 1.04921 16.7132 0.985044C16.8054 0.920879 16.9109 0.878501 17.0218 0.86111L22.6079 0.00850256C22.7842 -0.0184507 22.9644 0.0191632 23.1153 0.11443L50.5817 16.0406C50.6875 16.1074 50.7746 16.2 50.835 16.3095C50.8953 16.4191 50.927 16.5422 50.9269 16.6673L31.2754 15.3169L37.8526 14.0154C38.0283 13.9884 32.1641 15.2447 32.3147 15.3391L35.6059 17.4014C35.8807 16.8392 36.32 16.1095 36.9429 15.5421C37.6548 14.8954 40.1971 12.9073 43.0356 14.5051L43.0682 14.5243L43.809 14.994V14.0154C43.8091 13.8384 43.8725 13.6673 43.9879 13.533C44.1033 13.3988 44.2629 13.3103 44.4379 13.2836L50.0239 12.4272C50.2012 12.4002 50.3823 12.4383 50.5335 12.5347L61.3485 19.4074C61.4533 19.4746 61.5394 19.5671 61.599 19.6763C61.6585 19.7856 61.6896 19.9081 61.6893 20.0326Z" fill="black"/>
<path d="M8.03937 20.4709C8.03937 20.4709 6.64083 19.5279 4.78005 20.2227C2.46742 21.0857 0.740723 22.9953 0.740723 27.9851C0.740723 32.9748 4.03411 34.5193 6.3386 33.6037C8.22604 32.8511 8.58531 31.3303 8.58531 31.1207V25.7591L6.10304 26.1687V30.5644C6.10289 30.6992 6.07063 30.832 6.00895 30.9519C5.94727 31.0717 5.85793 31.1752 5.74833 31.2536C5.63873 31.3321 5.51201 31.3833 5.37867 31.4031C5.24533 31.4229 5.1092 31.4106 4.98154 31.3673C4.17264 31.094 3.22299 30.1636 3.22299 27.2984C3.22299 22.3827 6.01563 21.2287 8.03789 23.2516L8.03937 20.4709Z" fill="white"/>
<path d="M42.6714 15.1533C42.6714 15.1533 41.2729 14.2096 39.4121 14.9052C37.101 15.7681 35.3735 17.6771 35.3735 22.6668C35.3735 27.6565 38.6677 29.2039 40.9714 28.2854C42.8589 27.5335 43.2181 26.0128 43.2181 25.8031V20.4408L40.7351 20.8512V25.2468C40.735 25.3816 40.7028 25.5144 40.6411 25.6343C40.5794 25.7541 40.49 25.8576 40.3804 25.936C40.2708 26.0144 40.144 26.0656 40.0107 26.0852C39.8773 26.1049 39.7412 26.0925 39.6136 26.0491C38.8054 25.7787 37.8528 24.8453 37.8528 21.9801C37.8528 17.0645 40.6455 15.9104 42.6677 17.9334L42.6714 15.1533Z" fill="white"/>
<path d="M23.6903 24.9672C23.6903 24.9672 25.8007 23.5768 25.8007 20.8093C25.8007 18.0418 23.6866 17.2292 21.8903 17.5048L18.8154 17.9759V31.648L21.1347 31.2939V25.6131L21.7688 25.6042L23.4792 30.9376L25.9119 30.5673L23.6903 24.9672ZM21.1955 23.5027V19.8411C21.1955 19.8411 23.3555 19.1708 23.3555 21.256C23.3555 22.7708 22.2636 23.5027 21.1955 23.5027Z" fill="white"/>
<path d="M31.9211 15.9673L30.3063 16.214L26.8247 30.4201L29.4314 30.0209L30.0499 26.7793L31.8618 26.469L32.5804 29.5386L35.1137 29.1497L31.9211 15.9673ZM30.4196 24.8304L30.967 22.0622L31.5366 24.6193L30.4196 24.8304Z" fill="white"/>
<path d="M14.5852 18.6128L12.9703 18.8595L9.48877 33.0664L12.0955 32.6664L12.714 29.4248L14.5237 29.1122L15.2422 32.1819L17.7756 31.793L14.5852 18.6128ZM13.0836 27.4759L13.6296 24.7077L14.2 27.2655L13.0836 27.4759Z" fill="white"/>
<path d="M44.5483 14.016V27.691L50.5388 26.7703V24.7939L46.9158 25.3495V21.1361L49.1003 20.8013V18.8331L46.9158 19.1598V15.8256L50.1344 15.3323V13.1597L44.5483 14.016Z" fill="white"/>
<path d="M17.1348 1.59752V15.2726L23.1252 14.3518V12.3755L19.5015 12.9311V8.71765L21.686 8.38283V6.41464L19.5015 6.74132V3.40718L22.7208 2.91384V0.741211L17.1348 1.59752Z" fill="white"/>
<path d="M7.46454 3.08252V5.25515L5.11339 5.60997L5.09635 17.1331L2.93928 17.4539L2.93632 5.93887L0.765908 6.26628L0.740723 4.09809L7.46454 3.08252Z" fill="white"/>
<path d="M15.973 1.7832V15.4271L13.3663 15.8264V9.89446L11.2322 10.2219V16.1464L8.62549 16.5457V2.90248L11.2322 2.50248V8.04924L13.3663 7.72257V2.18321L15.973 1.7832Z" fill="white"/>
</g>
<defs>
<clipPath id="clip0_842_182">
<rect width="61.6892" height="42" fill="white"/>
</clipPath>
</defs>
</svg>
