<svg width="25" height="25" viewBox="0 0 25 25" fill="none" xmlns="http://www.w3.org/2000/svg">
<rect width="25" height="25" rx="4" fill="#F6F7F9"/>
<path d="M12.0286 5.63427C11.9597 5.59309 11.8809 5.57135 11.8006 5.57135C11.7203 5.57135 11.6415 5.59309 11.5726 5.63427C11.5156 5.67943 11.4771 5.74392 11.4645 5.81553C11.4518 5.88714 11.4659 5.9609 11.504 6.02284C12.9063 8.44912 13.2023 11.7554 11.2869 13.5783C10.5506 12.9592 9.96612 12.1797 9.57829 11.2994C8.87024 11.6926 8.2834 12.2723 7.88146 12.9754C7.47952 13.6785 7.27784 14.4783 7.29829 15.288C7.32728 16.0018 7.49874 16.7027 7.80259 17.3493C8.10645 17.9959 8.53655 18.5752 9.0676 19.0531C9.59865 19.531 10.2199 19.8979 10.8949 20.1321C11.5698 20.3664 12.2848 20.4633 12.9977 20.4171C16.6674 20.4171 18.5714 18.1383 18.696 15.288C18.8446 11.8686 16.4171 7.66284 12.0286 5.63427Z" stroke="black" stroke-width="1.14286" stroke-linecap="round" stroke-linejoin="round"/>
</svg>
