<svg width="25" height="25" viewBox="0 0 25 25" fill="none" xmlns="http://www.w3.org/2000/svg">
<rect width="25" height="25" rx="4" fill="#F6F7F9"/>
<g clip-path="url(#clip0_875_341)">
<path d="M15.6665 15.6666C15.6665 14.93 13.5772 14.3333 10.9998 14.3333M15.6665 15.6666C15.6665 16.4033 13.5772 17 10.9998 17C8.4225 17 6.33317 16.4033 6.33317 15.6666M15.6665 15.6666V18.958C15.6665 19.7173 13.5772 20.3333 10.9998 20.3333C8.4225 20.3333 6.33317 19.718 6.33317 18.958V15.6666M15.6665 15.6666C18.2158 15.6666 20.3332 15.0086 20.3332 14.3333V7.66665M10.9998 14.3333C8.4225 14.3333 6.33317 14.93 6.33317 15.6666M10.9998 14.3333C8.0545 14.3333 5.6665 13.6753 5.6665 13V9.66665M10.9998 8.33331C8.0545 8.33331 5.6665 8.92998 5.6665 9.66665M5.6665 9.66665C5.6665 10.4033 8.0545 11 10.9998 11C10.9998 11.6753 13.1685 12.3333 15.7178 12.3333C18.2665 12.3333 20.3332 11.6753 20.3332 11M20.3332 7.66665C20.3332 6.92998 18.2665 6.33331 15.7178 6.33331C13.1685 6.33331 11.1025 6.92998 11.1025 7.66665M20.3332 7.66665C20.3332 8.40331 18.2665 8.99998 15.7178 8.99998C13.1692 8.99998 11.1025 8.40331 11.1025 7.66665M11.1025 7.66665V14.444" stroke="black"/>
</g>
<defs>
<clipPath id="clip0_875_341">
<rect width="16" height="16" fill="white" transform="translate(5 5)"/>
</clipPath>
</defs>
</svg>
