<svg width="25" height="25" viewBox="0 0 25 25" fill="none" xmlns="http://www.w3.org/2000/svg">
<rect width="25" height="25" rx="4" fill="#F6F7F9"/>
<path d="M10.4288 7.85712C10.0911 7.85712 9.75672 7.92363 9.44474 8.05286C9.13276 8.18208 8.84929 8.37149 8.61051 8.61027C8.37173 8.84905 8.18232 9.13252 8.05309 9.4445C7.92386 9.75648 7.85735 10.0909 7.85735 10.4285C7.85735 10.7662 7.92386 11.1006 8.05309 11.4126C8.18232 11.7246 8.37173 12.008 8.61051 12.2468C8.84929 12.4856 9.13276 12.675 9.44474 12.8042C9.75672 12.9335 10.0911 13 10.4288 13C11.1108 13 11.7648 12.7291 12.2471 12.2468C12.7293 11.7646 13.0002 11.1105 13.0002 10.4285C13.0002 9.74656 12.7293 9.09251 12.2471 8.61027C11.7648 8.12803 11.1108 7.85712 10.4288 7.85712ZM8.7145 10.4285C8.7145 10.2034 8.75884 9.9805 8.84499 9.77252C8.93114 9.56453 9.05741 9.37555 9.2166 9.21636C9.37578 9.05718 9.56477 8.9309 9.77275 8.84475C9.98074 8.7586 10.2037 8.71426 10.4288 8.71426C10.6539 8.71426 10.8768 8.7586 11.0848 8.84475C11.2928 8.9309 11.4818 9.05718 11.641 9.21636C11.8002 9.37555 11.9264 9.56453 12.0126 9.77252C12.0987 9.9805 12.1431 10.2034 12.1431 10.4285C12.1431 10.8832 11.9625 11.3192 11.641 11.6407C11.3195 11.9622 10.8834 12.1428 10.4288 12.1428C9.97412 12.1428 9.53809 11.9622 9.2166 11.6407C8.89511 11.3192 8.7145 10.8832 8.7145 10.4285ZM16.4288 8.99997C15.8983 8.99997 15.3896 9.21069 15.0146 9.58576C14.6395 9.96083 14.4288 10.4695 14.4288 11C14.4288 11.5304 14.6395 12.0391 15.0146 12.4142C15.3896 12.7893 15.8983 13 16.4288 13C16.9592 13 17.4679 12.7893 17.843 12.4142C18.2181 12.0391 18.4288 11.5304 18.4288 11C18.4288 10.4695 18.2181 9.96083 17.843 9.58576C17.4679 9.21069 16.9592 8.99997 16.4288 8.99997ZM15.2859 11C15.2859 10.6969 15.4063 10.4062 15.6207 10.1919C15.835 9.97752 16.1257 9.85712 16.4288 9.85712C16.7319 9.85712 17.0226 9.97752 17.2369 10.1919C17.4512 10.4062 17.5716 10.6969 17.5716 11C17.5716 11.3031 17.4512 11.5938 17.2369 11.8081C17.0226 12.0224 16.7319 12.1428 16.4288 12.1428C16.1257 12.1428 15.835 12.0224 15.6207 11.8081C15.4063 11.5938 15.2859 11.3031 15.2859 11ZM6.14307 15.4285C6.14307 15.0876 6.27853 14.7605 6.51964 14.5194C6.76076 14.2783 7.08779 14.1428 7.42878 14.1428H13.4288C13.7698 14.1428 14.0968 14.2783 14.3379 14.5194C14.579 14.7605 14.7145 15.0876 14.7145 15.4285V15.732C14.7138 15.7782 14.7105 15.8244 14.7048 15.8703C14.6919 15.9881 14.6709 16.105 14.6419 16.22C14.5474 16.5952 14.379 16.9478 14.1465 17.2571C13.5671 18.0303 12.4619 18.7143 10.4288 18.7143C8.39564 18.7143 7.2905 18.0303 6.71107 17.2571C6.47876 16.9478 6.31052 16.5952 6.21621 16.22C6.1789 16.0706 6.155 15.9182 6.14478 15.7645C6.14407 15.7537 6.1435 15.7428 6.14307 15.732V15.7154V15.4285ZM7.00021 15.7114V15.7217L7.00535 15.7788C7.01107 15.8325 7.02249 15.9131 7.04764 16.012C7.11426 16.2763 7.23275 16.5247 7.39621 16.7428C7.78135 17.2554 8.60478 17.8571 10.4288 17.8571C12.2528 17.8571 13.0762 17.2554 13.4608 16.7428C13.6608 16.4765 13.7602 16.2103 13.8094 16.012C13.8334 15.9167 13.8492 15.8196 13.8568 15.7217L13.8574 15.7114V15.4285C13.8574 15.3149 13.8122 15.2059 13.7318 15.1255C13.6515 15.0451 13.5424 15 13.4288 15H7.42878C7.31512 15 7.20611 15.0451 7.12573 15.1255C7.04536 15.2059 7.00021 15.3149 7.00021 15.4285V15.7114ZM14.7716 17.3543C15.2134 17.4897 15.7585 17.5714 16.4276 17.5714C18.0105 17.5714 18.8951 17.1165 19.3756 16.568C19.5678 16.3509 19.7102 16.0944 19.7928 15.8165C19.8254 15.7043 19.8463 15.5891 19.8551 15.4725L19.8562 15.4457V15.4285C19.8562 15.0876 19.7208 14.7605 19.4796 14.5194C19.2385 14.2783 18.9115 14.1428 18.5705 14.1428H14.7682C14.9934 14.3777 15.1579 14.672 15.2356 15H18.5711C18.6837 15 18.7919 15.0443 18.8721 15.1235C18.9523 15.2026 18.9981 15.3102 18.9996 15.4228C18.9946 15.4747 18.9846 15.526 18.9699 15.576C18.9221 15.7343 18.8402 15.8802 18.7299 16.0034C18.4608 16.312 17.8459 16.7143 16.4276 16.7143C15.8899 16.7143 15.4676 16.6565 15.1356 16.5674C15.0476 16.8438 14.9253 17.1082 14.7716 17.3543Z" fill="black"/>
</svg>
